<svg xmlns="http://www.w3.org/2000/svg" xmlns:xlink="http://www.w3.org/1999/xlink" fill="none" version="1.1"
    width="934.975830078125" height="1024" viewBox="0 0 934.975830078125 1024">
    <defs>
        <linearGradient x1="0.8886098265647888" y1="0.20377419888973236" x2="0.38914209604263306" y2="1.060731291770935"
            id="master_svg0_62_27239">
            <stop offset="0%" stop-color="#E4C07C" stop-opacity="1" />
            <stop offset="24.0004301071167%" stop-color="#FFF3D4" stop-opacity="1" />
            <stop offset="100%" stop-color="#B2781C" stop-opacity="1" />
        </linearGradient>
        <linearGradient x1="0.5242149233818054" y1="0.045987214893102646" x2="0.6559447050094604" y2="1"
            id="master_svg1_62_23316">
            <stop offset="0%" stop-color="#CEAB67" stop-opacity="1" />
            <stop offset="0%" stop-color="#D6B471" stop-opacity="1" />
            <stop offset="50.123631954193115%" stop-color="#FFF3CB" stop-opacity="1" />
            <stop offset="100%" stop-color="#C5974B" stop-opacity="1" />
        </linearGradient>
        <linearGradient x1="0.9891389608383179" y1="0.07989997416734695" x2="0.38914209604263306" y2="1.060731291770935"
            id="master_svg2_62_21359">
            <stop offset="0%" stop-color="#FFFFFF" stop-opacity="1" />
            <stop offset="34.24657583236694%" stop-color="#FFFFFF" stop-opacity="1" />
            <stop offset="100%" stop-color="#FFFFFF" stop-opacity="1" />
        </linearGradient>
        <mask id="master_svg3_90_04872" style="mask-type:alpha" maskUnits="userSpaceOnUse">
            <g>
                <path
                    d="M430.268,953.889L630.832,840.696L233.323,625.794C223.633,620.555,217.594,610.428,217.59,599.414L217.506,361.608C217.502,351.004,223.097,341.186,232.221,335.784L598.425,118.957C603.692,115.838,603.648,108.2,598.345,105.143L431,8.66323C421.703,3.30342,410.251,3.31748,400.968,8.7001L14.9542,232.513C5.69913,237.879,0.00199601,247.767,0.00195147,258.466L0.0000728482,709.637C0.0000278307,720.449,5.81728,730.424,15.227,735.748L400.75,953.873C409.906,959.053,421.106,959.059,430.268,953.889"
                    fill-rule="evenodd" fill="url(#master_svg2_62_21359)" fill-opacity="1" />
            </g>
        </mask>
        <linearGradient x1="0.7070627808570862" y1="0.6940196752548218" x2="0.4530367851257324" y2="0"
            id="master_svg4_62_25585">
            <stop offset="0%" stop-color="#AF8743" stop-opacity="1" />
            <stop offset="100%" stop-color="#D0A966" stop-opacity="0" />
        </linearGradient>
        <linearGradient x1="0.8489537835121155" y1="0.0673203095793724" x2="0" y2="1" id="master_svg5_62_24062">
            <stop offset="0%" stop-color="#ECD199" stop-opacity="0" />
            <stop offset="100%" stop-color="#C29D55" stop-opacity="1" />
        </linearGradient>
        <linearGradient x1="0.4386705756187439" y1="0.10289114713668823" x2="1" y2="0.9720888137817383"
            id="master_svg6_62_37180">
            <stop offset="0%" stop-color="#B98D43" stop-opacity="1" />
            <stop offset="19.195160269737244%" stop-color="#CBA769" stop-opacity="1" />
            <stop offset="47.37495481967926%" stop-color="#F7E2B0" stop-opacity="1" />
            <stop offset="100%" stop-color="#D0AB63" stop-opacity="1" />
        </linearGradient>
        <linearGradient x1="0.4386705756187439" y1="0.10289114713668823" x2="1" y2="0.9720888137817383"
            id="master_svg7_62_26885">
            <stop offset="0%" stop-color="#FFFFFF" stop-opacity="1" />
            <stop offset="19.195160269737244%" stop-color="#FFFFFF" stop-opacity="1" />
            <stop offset="47.37495481967926%" stop-color="#FFFFFF" stop-opacity="1" />
            <stop offset="76.7123281955719%" stop-color="#FFFFFF" stop-opacity="1" />
            <stop offset="100%" stop-color="#FFFFFF" stop-opacity="1" />
        </linearGradient>
        <mask id="master_svg8_90_04877" style="mask-type:alpha" maskUnits="userSpaceOnUse">
            <g
                transform="matrix(-0.49916449189186096,-0.8665072917938232,0.8655422925949097,-0.5008358359336853,-414.21867333541013,1809.7246694021742)">
                <path
                    d="M315.009781140625,1606C314.945930440625,1616.786,320.677814140625,1626.7759999999998,330.021994140625,1632.165L505.71549414062497,1733.487C511.045494140625,1736.56,517.705494140625,1732.7179999999998,517.7114941406251,1726.565L518.440494140625,1024.00266951L332.451794140625,1133.338C323.339124140625,1138.695,317.718214140625,1148.452,317.655644140625,1159.022L315.009781140625,1606Z"
                    fill="url(#master_svg7_62_26885)" fill-opacity="1" />
            </g>
        </mask>
        <linearGradient x1="1" y1="0.480863094329834" x2="0.20679457485675812" y2="0.4797540605068207"
            id="master_svg9_62_36303">
            <stop offset="0%" stop-color="#FAEABC" stop-opacity="1" />
            <stop offset="100%" stop-color="#E5CB95" stop-opacity="0" />
        </linearGradient>
        <filter id="master_svga_90_04879" filterUnits="objectBoundingBox" color-interpolation-filters="sRGB" x="-120"
            y="-120" width="619.9678649902344" height="376.67909240722656">
            <feFlood flood-opacity="0" result="BackgroundImageFix" />
            <feBlend mode="normal" in="SourceGraphic" in2="BackgroundImageFix" result="shape" />
            <feGaussianBlur stdDeviation="30" result="effect1_foregroundBlur" />
        </filter>
        <radialGradient cx="0" cy="0" r="1" gradientUnits="userSpaceOnUse" id="master_svgb_62_33950"
            gradientTransform="translate(669.1349102325839 325.82909498678055) rotate(125.82653781251756) scale(207.96212394698046 218.68799305710232)">
            <stop offset="0%" stop-color="#C79E4D" stop-opacity="1" />
            <stop offset="43.83667707443237%" stop-color="#FFE5B9" stop-opacity="1" />
            <stop offset="100%" stop-color="#A78645" stop-opacity="1" />
        </radialGradient>
        <radialGradient cx="0" cy="0" r="1" gradientUnits="userSpaceOnUse" id="master_svgc_62_33375"
            gradientTransform="translate(669.2496993087334 325.6203242348274) rotate(125.82653781251756) scale(207.96212394698046 218.68799305710232)">
            <stop offset="0%" stop-color="#FFFFFF" stop-opacity="1" />
            <stop offset="51.840442419052124%" stop-color="#FFFFFF" stop-opacity="1" />
            <stop offset="100%" stop-color="#FFFFFF" stop-opacity="1" />
        </radialGradient>
        <mask id="master_svgd_90_04883" style="mask-type:alpha" maskUnits="userSpaceOnUse">
            <g
                transform="matrix(0.9818188548088074,-0.1898203194141388,0.18882310390472412,0.9820111393928528,-33.51234304321679,97.13053321891697)">
                <path
                    d="M503.14866656638384,327.6523598937988C499.23261656638385,327.6523598937988,497.64947656638384,332.6973598937988,500.86336656638383,334.9353598937988L569.4586665663838,382.68935989379884C576.7692665663839,387.77935989379887,579.8327665663838,397.0903598937988,576.9723665663838,405.5263598937988L550.7970665663838,482.72235989379885C549.5576665663839,486.3773598937988,553.7026665663839,489.4953598937988,556.8704665663838,487.29035989379884L626.8719665663839,438.56435989379884C633.7389665663839,433.78435989379886,642.8559665663838,433.78435989379886,649.7239665663839,438.56435989379884L719.7249665663838,487.29035989379884C722.8929665663838,489.4953598937988,727.0369665663839,486.3773598937988,725.7979665663838,482.72235989379885L699.6229665663839,405.5263598937988C696.7619665663839,397.0903598937988,699.8259665663838,387.77935989379887,707.1359665663838,382.68935989379884L775.7319665663838,334.9353598937988C778.9459665663838,332.6973598937988,777.3629665663839,327.6523598937988,773.4459665663838,327.6523598937988L687.5489665663838,327.6493598937988C678.9789665663839,327.64835989379884,671.3619665663839,322.1885598937988,668.6099665663838,314.07285989379886L642.0859665663838,235.86825989379884C640.8579665663839,232.24796989379882,635.7369665663839,232.24796989379882,634.5099665663838,235.86825989379884L607.9859665663838,314.07285989379886C605.2329665663839,322.18865989379884,597.6159665663838,327.64835989379884,589.0460665663838,327.6493598937988L503.14866656638384,327.6523598937988Z"
                    fill="url(#master_svgc_62_33375)" fill-opacity="1" />
            </g>
        </mask>
        <linearGradient x1="0.5548568964004517" y1="0.2424858957529068" x2="0.36882174015045166" y2="0.9254150390625"
            id="master_svge_62_38607">
            <stop offset="0%" stop-color="#B59557" stop-opacity="1" />
            <stop offset="100%" stop-color="#F0D39D" stop-opacity="0" />
        </linearGradient>
        <linearGradient x1="0.050204191356897354" y1="0.9409494996070862" x2="1" y2="-0.05205707997083664"
            id="master_svgf_62_24697">
            <stop offset="0%" stop-color="#CEAB67" stop-opacity="1" />
            <stop offset="100%" stop-color="#EDC472" stop-opacity="1" />
        </linearGradient>
    </defs>
    <g>
        <g>
            <path
                d="M430.268,953.889L630.832,840.696L233.329,625.797C223.636,620.557,217.596,610.425,217.596,599.407L217.596,354.788C217.596,344.044,223.341,334.121,232.657,328.772L598.149,118.905C603.499,115.833,603.505,108.118,598.161,105.037L431,8.66323C421.703,3.30342,410.251,3.31748,400.968,8.7001L14.9542,232.513C5.69913,237.879,0.00199601,247.767,0.00195147,258.466L0.0000728482,709.637C0.0000278307,720.449,5.81728,730.424,15.227,735.748L400.75,953.873C409.906,959.053,421.106,959.059,430.268,953.889"
                fill-rule="evenodd" fill="url(#master_svg0_62_27239)" fill-opacity="1" />
            <path
                d="M233.329,625.797L630.312,840.415L630.832,840.696L630.317,840.986L430.268,953.889C421.106,959.059,409.906,959.053,400.75,953.873L15.227,735.748C5.81728,730.424,0.0000278307,720.449,0.0000728482,709.637L0.00195147,258.466C0.00199601,247.767,5.69913,237.879,14.9542,232.513L400.968,8.7001C410.251,3.31748,421.703,3.30342,431,8.66323L598.161,105.037C603.505,108.118,603.499,115.833,598.149,118.905L232.657,328.772C223.341,334.121,217.596,344.044,217.596,354.788L217.596,599.407C217.596,610.425,223.636,620.557,233.329,625.797ZM430.022,953.453L629.798,840.706L233.091,626.237Q225.701,622.241,221.398,615.025Q217.096,607.808,217.096,599.407L217.096,354.788Q217.096,346.596,221.2,339.507Q225.305,332.417,232.408,328.338L597.9,118.471Q601.662,116.311,601.665,111.974Q601.669,107.636,597.911,105.47L430.75,9.09639Q423.894,5.14354,415.979,5.15325Q408.065,5.16296,401.219,9.13265L15.205,232.945Q8.37941,236.903,4.44068,243.739Q0.501984,250.576,0.50195,258.466L0.500073,709.637Q0.50004,717.611,4.5168,724.499Q8.53319,731.387,15.4733,735.313L400.996,953.438Q407.75,957.258,415.507,957.262Q423.266,957.267,430.022,953.453Z"
                fill-rule="evenodd" fill="url(#master_svg1_62_23316)" fill-opacity="1" />
        </g>
        <g mask="url(#master_svg3_90_04872)">
            <g>
                <path
                    d="M13.667908668518066,740.8004897460937L224.15390866851806,858.3444897460938L437.37290866851805,729.8664897460937L224.15390866851806,617.7894897460938L13.667908668518066,740.8004897460937Z"
                    fill="url(#master_svg4_62_25585)" fill-opacity="1" />
            </g>
            <g>
                <path
                    d="M215.953125,348.698Q217.330635,344.265,221.420285,340.497Q225.509945,336.729,237.821825,329.563L606.855125,119.077Q556.160125,83.7338,418.23812499999997,7Q222.662825,121.086,215.9953677,340.508L215.953125,348.698Z"
                    fill="url(#master_svg5_62_24062)" fill-opacity="1" />
            </g>
        </g>
        <g
            transform="matrix(-0.49916449189186096,-0.8665072917938232,0.8655422925949097,-0.5008358359336853,-414.1627735369402,1809.3078766535218)">
            <path
                d="M314.917495984375,1605.7755737304688C314.853645284375,1616.5615737304688,320.585528984375,1626.5515737304686,329.929708984375,1631.9405737304687L505.62320898437497,1733.2625737304688C510.953208984375,1736.3355737304687,517.613208984375,1732.4935737304686,517.6192089843751,1726.3405737304688L518.348208984375,1023.7782432404688L332.359508984375,1133.1135737304687C323.246838984375,1138.4705737304687,317.625928984375,1148.2275737304687,317.563358984375,1158.7975737304687L314.917495984375,1605.7755737304688Z"
                fill="url(#master_svg6_62_37180)" fill-opacity="1" />
        </g>
        <g mask="url(#master_svg8_90_04877)">
            <g
                transform="matrix(0.4913439452648163,0.8709656000137329,-0.8709656000137329,0.4913439452648163,940.9301663323267,-405.46015713755514)">
                <path
                    d="M817.5973815917969,1199.9406137695314L937.8323815917969,1199.9406137695314L937.8133815917969,642.7081137695312L850.4537815917969,602.8416137695312L817.5973815917969,1199.9406137695314Z"
                    fill="url(#master_svg9_62_36303)" fill-opacity="1" />
            </g>
            <g filter="url(#master_svga_90_04879)">
                <path
                    d="M246.02157592773438,863.812059375L410.03657592773436,978.622359375L625.9895759277344,841.943359375L410.03657592773436,913.016459375L246.02157592773438,863.812059375Z"
                    fill="#FEFFE1" fill-opacity="1" />
            </g>
        </g>
        <g>
            <g
                transform="matrix(0.9818188548088074,-0.1898203194141388,0.18882310390472412,0.9820111393928528,-33.55385078146492,97.11249946777275)">
                <path
                    d="M503.0338774902344,327.8611306457519C499.1178274902344,327.8611306457519,497.5346874902344,332.90613064575194,500.74857749023437,335.14413064575194L569.3438774902344,382.89813064575196C576.6544774902344,387.988130645752,579.7179774902344,397.2991306457519,576.8575774902343,405.73513064575195L550.6822774902344,482.931130645752C549.4428774902344,486.58613064575195,553.5878774902344,489.70413064575195,556.7556774902343,487.49913064575196L626.7571774902344,438.77313064575196C633.6241774902344,433.993130645752,642.7411774902343,433.993130645752,649.6091774902344,438.77313064575196L719.6101774902344,487.49913064575196C722.7781774902344,489.70413064575195,726.9221774902344,486.58613064575195,725.6831774902344,482.931130645752L699.5081774902344,405.73513064575195C696.6471774902344,397.2991306457519,699.7111774902344,387.988130645752,707.0211774902343,382.89813064575196L775.6171774902343,335.14413064575194C778.8311774902344,332.90613064575194,777.2481774902344,327.8611306457519,773.3311774902344,327.8611306457519L687.4341774902343,327.85813064575194C678.8641774902344,327.85713064575197,671.2471774902344,322.39733064575194,668.4951774902344,314.281630645752L641.9711774902344,236.07703064575196C640.7431774902344,232.45674064575195,635.6221774902344,232.45674064575195,634.3951774902343,236.07703064575196L607.8711774902343,314.281630645752C605.1181774902344,322.39743064575197,597.5011774902343,327.85713064575197,588.9312774902344,327.85813064575194L503.0338774902344,327.8611306457519Z"
                    fill="url(#master_svgb_62_33950)" fill-opacity="1" />
            </g>
            <g mask="url(#master_svgd_90_04883)">
                <g>
                    <path
                        d="M574.052167005837,191.35043483428956L598.654367005837,311.62813483428954L800.9391670058369,377.23413483428953L841.943167005837,270.6243348342896L645.1252670058369,180.41613483428955L574.052167005837,191.35043483428956Z"
                        fill="url(#master_svge_62_38607)" fill-opacity="1" />
                </g>
            </g>
        </g>
        <g>
            <path
                d="M563.1176525878907,440.10668813476565C563.1176525878907,450.67468813476563,554.5506525878907,459.24168813476564,543.9826525878906,459.24168813476564C533.4146525878906,459.24168813476564,524.8476525878906,450.67468813476563,524.8476525878906,440.10668813476565C524.8476525878906,429.53864813476565,533.4146525878906,420.9715881347656,543.9826525878906,420.9715881347656C554.5506525878907,420.9715881347656,563.1176525878907,429.53864813476565,563.1176525878907,440.10668813476565ZM366.29995258789063,568.5845881347657C366.29995258789063,580.6625881347657,356.5090525878906,590.4535881347656,344.4313525878906,590.4535881347656C332.3535825878906,590.4535881347656,322.5626525878906,580.6625881347657,322.5626525878906,568.5845881347657C322.5626525878906,556.5075881347657,332.3535825878906,546.7165881347656,344.4313525878906,546.7165881347656C356.5090525878906,546.7165881347656,366.29995258789063,556.5075881347657,366.29995258789063,568.5845881347657ZM431.90565258789064,440.10668813476565C431.90565258789064,447.6552881347656,425.7866525878906,453.7745881347656,418.2380525878906,453.7745881347656C410.6894525878906,453.7745881347656,404.5701525878906,447.6552881347656,404.5701525878906,440.10668813476565C404.5701525878906,432.5580881347656,410.6894525878906,426.4387481347656,418.2380525878906,426.4387481347656C425.7866525878906,426.4387481347656,431.90565258789064,432.5580881347656,431.90565258789064,440.10668813476565Z"
                fill="url(#master_svgf_62_24697)" fill-opacity="1" />
        </g>
    </g>
</svg>